<?xml version="1.0" encoding="utf-8"?>
<!-- Generator: Adobe Illustrator 15.0.2, SVG Export Plug-In  -->
<!DOCTYPE svg PUBLIC "-//W3C//DTD SVG 1.1//EN" "http://www.w3.org/Graphics/SVG/1.1/DTD/svg11.dtd" [
	<!ENTITY ns_flows "http://ns.adobe.com/Flows/1.0/">
]>
<svg version="1.1"
	 xmlns="http://www.w3.org/2000/svg" xmlns:xlink="http://www.w3.org/1999/xlink" xmlns:a="http://ns.adobe.com/AdobeSVGViewerExtensions/3.0/"
	 x="0px" y="0px" width="800px" height="600px" viewBox="-128.054 -64.667 800 600"
	 enable-background="new -128.054 -64.667 800 600" xml:space="preserve">
<defs>
</defs>
<g>
	<path d="M0.613,255.152c-0.866-6.745-0.716-13.624-0.156-20.467c0.622-6.843,1.777-13.683,3.517-20.414
		c3.432-13.476,9.145-26.544,16.907-38.461c3.882-5.956,8.298-11.593,13.113-16.89c4.815-5.3,10.115-10.165,15.697-14.672
		c5.579-4.52,11.528-8.565,17.686-12.229c6.164-3.651,12.527-6.964,19.077-9.8c6.541-2.859,13.218-5.356,19.978-7.537
		c6.763-2.173,13.625-3.945,20.515-5.492c13.785-3.112,27.75-4.93,41.686-6.008c6.97-0.557,13.944-0.819,20.904-0.928
		c6.96-0.108,13.908-0.043,20.84,0.17c6.932,0.218,13.841,0.672,20.732,1.206l5.164,0.432l5.083,0.464l9.953,0.872
		c13.274,1.212,26.545,2.229,39.799,2.984c13.248,0.867,26.486,1.367,39.676,1.617c26.345,0.431,52.693-0.348,77.894-4.905
		c6.274-1.203,12.476-2.593,18.5-4.399c6.025-1.799,11.863-4.005,17.453-6.621c11.156-5.268,21.129-12.585,29.025-22.229
		c7.99-9.572,13.839-21.307,18.666-33.656c4.824-12.376,8.712-25.375,13.141-38.19c-1.377,13.489-2.841,26.935-5.658,40.412
		c-1.393,6.74-3.223,13.46-5.613,20.107c-2.403,6.636-5.494,13.152-9.343,19.333c-3.867,6.165-8.568,11.912-13.883,17.036
		c-5.319,5.125-11.289,9.537-17.532,13.348c-6.244,3.831-12.829,6.952-19.509,9.627c-6.687,2.668-13.485,4.899-20.345,6.696
		c-6.854,1.818-13.748,3.303-20.649,4.546c-6.906,1.216-13.824,2.145-20.734,2.917c-13.821,1.579-27.631,2.223-41.384,2.535
		c-13.757,0.274-27.463-0.045-41.124-0.557c-13.657-0.631-27.265-1.568-40.833-2.719l-20.051-1.922
		c-6.536-0.582-13.074-0.994-19.603-1.351c-13.058-0.751-26.1-0.825-39.06-0.375c-12.961,0.455-25.83,1.702-38.503,3.72
		c-6.334,1.027-12.601,2.333-18.796,3.851c-6.198,1.509-12.311,3.3-18.294,5.409c-5.973,2.132-11.863,4.475-17.559,7.219
		c-5.696,2.738-11.208,5.832-16.526,9.238c-10.594,6.862-20.302,15.174-28.597,24.91c-8.338,9.698-15.237,20.803-20.551,32.812
		c-2.635,6.012-4.907,12.241-6.713,18.65C2.789,241.85,1.349,248.418,0.613,255.152z"/>
</g>
<g>
	<path d="M0.613,330.152c-0.866-6.745-0.716-13.624-0.156-20.467c0.622-6.844,1.777-13.684,3.517-20.414
		c3.432-13.476,9.145-26.545,16.907-38.461c3.882-5.956,8.298-11.593,13.113-16.89c4.815-5.3,10.115-10.164,15.697-14.672
		c5.579-4.52,11.528-8.565,17.686-12.229c6.164-3.651,12.527-6.964,19.077-9.8c6.541-2.859,13.218-5.356,19.978-7.537
		c6.763-2.173,13.625-3.945,20.516-5.492c13.785-3.112,27.75-4.93,41.686-6.008c6.97-0.557,13.944-0.819,20.904-0.928
		c6.96-0.108,13.908-0.043,20.84,0.17c6.932,0.218,13.841,0.672,20.732,1.206l5.164,0.432l5.083,0.464l9.953,0.872
		c13.274,1.211,26.545,2.229,39.799,2.984c13.248,0.867,26.485,1.367,39.676,1.617c26.344,0.431,52.693-0.348,77.894-4.905
		c6.274-1.203,12.476-2.593,18.5-4.399c6.025-1.798,11.862-4.005,17.452-6.621c11.157-5.268,21.13-12.585,29.026-22.228
		c7.99-9.572,13.839-21.307,18.666-33.656c4.824-12.376,8.712-25.375,13.141-38.19c-1.377,13.489-2.841,26.935-5.658,40.412
		c-1.393,6.74-3.223,13.46-5.613,20.107c-2.403,6.636-5.494,13.152-9.343,19.333c-3.867,6.165-8.569,11.912-13.883,17.036
		c-5.319,5.125-11.289,9.537-17.532,13.348c-6.244,3.832-12.83,6.952-19.509,9.627c-6.687,2.668-13.485,4.899-20.345,6.695
		c-6.854,1.819-13.748,3.304-20.649,4.547c-6.906,1.216-13.825,2.145-20.734,2.917c-13.821,1.579-27.632,2.223-41.384,2.535
		c-13.757,0.274-27.463-0.045-41.124-0.557c-13.657-0.631-27.265-1.568-40.833-2.719l-20.051-1.922
		c-6.536-0.582-13.074-0.994-19.603-1.351c-13.058-0.751-26.1-0.825-39.06-0.375c-12.962,0.455-25.83,1.702-38.503,3.72
		c-6.334,1.027-12.601,2.333-18.796,3.851c-6.198,1.509-12.311,3.3-18.294,5.409c-5.973,2.132-11.863,4.475-17.559,7.219
		c-5.696,2.738-11.208,5.832-16.526,9.238c-10.594,6.862-20.302,15.174-28.597,24.911c-8.338,9.697-15.237,20.803-20.551,32.812
		c-2.635,6.012-4.907,12.241-6.713,18.65C2.789,316.85,1.349,323.418,0.613,330.152z"/>
</g>
<g>
	<path d="M0.613,401.152c-0.866-6.745-0.716-13.624-0.156-20.467c0.622-6.844,1.777-13.684,3.517-20.414
		c3.432-13.476,9.145-26.545,16.907-38.461c3.882-5.956,8.299-11.593,13.113-16.89c4.815-5.3,10.115-10.164,15.697-14.672
		c5.579-4.52,11.528-8.565,17.686-12.229c6.164-3.65,12.527-6.964,19.077-9.8c6.541-2.859,13.219-5.356,19.978-7.537
		c6.763-2.173,13.625-3.944,20.515-5.492c13.785-3.111,27.75-4.93,41.687-6.008c6.97-0.557,13.944-0.818,20.903-0.928
		c6.96-0.108,13.908-0.044,20.84,0.169c6.932,0.219,13.841,0.673,20.732,1.206l5.164,0.432l5.083,0.465l9.953,0.871
		c13.274,1.212,26.545,2.23,39.799,2.984c13.248,0.867,26.486,1.368,39.676,1.617c26.344,0.432,52.693-0.348,77.894-4.904
		c6.274-1.203,12.476-2.594,18.5-4.399c6.025-1.799,11.863-4.006,17.453-6.621c11.156-5.268,21.129-12.585,29.025-22.229
		c7.99-9.572,13.839-21.307,18.666-33.656c4.824-12.376,8.712-25.375,13.141-38.19c-1.377,13.489-2.841,26.935-5.658,40.412
		c-1.393,6.74-3.223,13.46-5.613,20.107c-2.403,6.636-5.494,13.152-9.343,19.333c-3.867,6.165-8.569,11.912-13.883,17.036
		c-5.319,5.125-11.289,9.536-17.532,13.348c-6.244,3.832-12.83,6.952-19.509,9.627c-6.687,2.669-13.485,4.899-20.345,6.696
		c-6.854,1.818-13.748,3.303-20.649,4.546c-6.906,1.217-13.824,2.145-20.734,2.918c-13.821,1.579-27.632,2.223-41.384,2.535
		c-13.757,0.274-27.463-0.046-41.124-0.557c-13.657-0.631-27.265-1.568-40.833-2.72l-20.051-1.921
		c-6.536-0.582-13.074-0.994-19.603-1.352c-13.058-0.75-26.1-0.824-39.06-0.374c-12.962,0.454-25.83,1.701-38.503,3.72
		c-6.333,1.027-12.601,2.333-18.796,3.851c-6.198,1.509-12.311,3.3-18.294,5.408c-5.973,2.132-11.863,4.476-17.558,7.219
		c-5.696,2.738-11.208,5.832-16.526,9.237c-10.594,6.862-20.302,15.175-28.597,24.911c-8.338,9.697-15.237,20.803-20.551,32.812
		c-2.635,6.012-4.907,12.241-6.713,18.65C2.789,387.85,1.349,394.418,0.613,401.152z"/>
</g>
</svg>
