<?xml version="1.0" encoding="utf-8"?>
<!-- Generator: Adobe Illustrator 15.0.2, SVG Export Plug-In . SVG Version: 6.00 Build 0)  -->
<!DOCTYPE svg PUBLIC "-//W3C//DTD SVG 1.1//EN" "http://www.w3.org/Graphics/SVG/1.1/DTD/svg11.dtd">
<svg version="1.1" id="Layer_1" xmlns="http://www.w3.org/2000/svg" xmlns:xlink="http://www.w3.org/1999/xlink" x="0px" y="0px"
	 width="180px" height="200px" viewBox="0 0 180 200" enable-background="new 0 0 180 200" xml:space="preserve">
<path fill="none" stroke="#FFFFFF" stroke-width="9" d="M45.986,165V35l70-20v130 M45.986,44l70-20"/>
<path fill="#FFFFFF" d="M49.986,164c-0.46-8.279-12.02-14.768-25.819-14.492C10.368,149.785-0.446,156.721,0.014,165
	c0.46,8.279,12.02,14.768,25.819,14.492c13.153-0.264,23.714-6.6,24.153-14.492 M119.986,144
	c-0.461-8.279-12.02-14.768-25.819-14.492c-13.8,0.277-24.613,7.213-24.153,15.492c0.46,8.279,12.02,14.768,25.82,14.492
	c13.152-0.264,23.714-6.6,24.152-14.492"/>
</svg>
