<?xml version="1.0" encoding="utf-8"?>
<!-- Generator: Adobe Illustrator 15.0.2, SVG Export Plug-In . SVG Version: 6.00 Build 0)  -->
<!DOCTYPE svg PUBLIC "-//W3C//DTD SVG 1.1//EN" "http://www.w3.org/Graphics/SVG/1.1/DTD/svg11.dtd">
<svg version="1.1" id="Layer_1" xmlns="http://www.w3.org/2000/svg" xmlns:xlink="http://www.w3.org/1999/xlink" x="0px" y="0px"
	 width="480px" height="480px" viewBox="0 0 480 480" enable-background="new 0 0 480 480" xml:space="preserve">
<g id="mic">
	<path d="M167.885,184.993c0,26.392-21.603,47.998-48.003,47.998h-11.528c-26.4,0-48.002-21.606-48.002-47.998V48.004
		C60.352,21.604,81.954,0,108.354,0h11.528c26.4,0,48.003,21.604,48.003,48.004V184.993z"/>
	<path d="M219.275,153.852h-8.961c-4.932,0-8.961,4.034-8.961,8.961v8.008c0,50.261-37.109,91.001-87.361,91.001
		c-50.26,0-87.109-40.74-87.109-91.001v-8.008c0-4.927-4.029-8.961-8.961-8.961H8.961c-4.924,0-8.961,4.034-8.961,8.961v8.008
		c0,58.862,40.229,107.625,96.07,116.362v36.966H61.658c-4.932,0-8.961,4.039-8.961,8.971v17.922c0,4.924,4.029,8.962,8.961,8.962
		h104.688c4.926,0,8.961-4.038,8.961-8.962v-17.922c0-4.932-4.035-8.971-8.961-8.971h-34.431v-36.966
		c55.89-8.729,96.32-57.5,96.32-116.362v-8.008C228.236,157.886,224.197,153.852,219.275,153.852z"/>
</g>
</svg>
