<?xml version="1.0" encoding="iso-8859-1"?><!-- Generator: Adobe Illustrator 17.0.0, SVG Export Plug-In . SVG Version: 6.00 Build 0) --><!DOCTYPE svg PUBLIC "-//W3C//DTD SVG 1.1//EN" "http://www.w3.org/Graphics/SVG/1.1/DTD/svg11.dtd"><svg version="1.1" id="Capa_1" xmlns="http://www.w3.org/2000/svg" xmlns:xlink="http://www.w3.org/1999/xlink" x="0px" y="0px" width="64px" height="64px" viewBox="0 0 64 64" style="enable-background:new 0 0 64 64;" xml:space="preserve"><g><path d="M58.089,12.644l-6.712,6.779c-1.998-2.844-4.526-5.286-7.442-7.184l5.398-7.521c0.795-1.173,0.586-2.684-0.467-3.376	s-2.551-0.3-3.346,0.873l-5.163,8.063c-3.419-1.553-7.213-2.424-11.213-2.424c-14.998,0-27.157,12.159-27.157,27.157	c0,14.998,12.159,27.157,27.157,27.157c14.998,0,27.157-12.159,27.157-27.157c0-4.326-1.017-8.414-2.816-12.044l7.802-7.092	c1.026-0.984,1.142-2.505,0.259-3.397C60.663,11.585,59.115,11.659,58.089,12.644z M29.145,58.106	c-12.735,0-23.096-10.361-23.096-23.096c0-12.735,10.361-23.096,23.096-23.096c3.19,0,6.23,0.65,8.996,1.825L22.54,39.348	c-0.688,0.116-1.433,0.615-1.963,1.397c-0.827,1.221-0.817,2.658,0.023,3.209c0.84,0.552,2.192,0.009,3.019-1.212	c0.545-0.805,0.719-1.699,0.539-2.376l17.401-24.818c2.753,1.762,5.108,4.089,6.901,6.82L26.775,43.313	c-0.698-0.028-1.531,0.307-2.216,0.964c-1.068,1.024-1.362,2.432-0.658,3.144s2.142,0.459,3.21-0.566	c0.704-0.675,1.063-1.514,1.03-2.213l22.193-18.81c1.224,2.815,1.907,5.918,1.907,9.179C52.241,47.745,41.88,58.106,29.145,58.106z	"/><path d="M28.217,47.924c-0.549,0.064-0.941,0.562-0.876,1.11l0.277,2.357l-2.566-1.358c-0.439-0.23-0.984-0.106-1.277,0.297	l-1.337,1.844l-1.17-3.034c-0.182-0.471-0.69-0.733-1.176-0.609l-3.467,0.866l1.393-3.62c0.183-0.476-0.02-1.012-0.472-1.246	l-2.446-1.272l2.023-1.034c0.492-0.252,0.687-0.854,0.436-1.346c-0.252-0.49-0.854-0.688-1.346-0.436l-3.75,1.917	c-0.333,0.171-0.543,0.513-0.545,0.887c-0.001,0.375,0.207,0.719,0.539,0.891l3.375,1.755l-1.763,4.582	c-0.134,0.349-0.063,0.742,0.184,1.021c0.248,0.28,0.63,0.4,0.992,0.308l4.476-1.118l1.515,3.926	c0.132,0.342,0.44,0.584,0.804,0.631c0.043,0.006,0.086,0.009,0.129,0.009c0.318,0,0.62-0.151,0.81-0.413l1.907-2.63l3.482,1.844	c0.329,0.174,0.727,0.151,1.033-0.059c0.307-0.21,0.472-0.573,0.428-0.942l-0.5-4.25C29.262,48.251,28.76,47.855,28.217,47.924z"/><path d="M32.735,47.047c-0.249-0.491-0.852-0.688-1.344-0.438c-0.493,0.25-0.689,0.852-0.439,1.345l2.062,4.062	c0.177,0.347,0.527,0.547,0.893,0.547c0.152,0,0.307-0.035,0.452-0.108c0.492-0.25,0.688-0.852,0.438-1.345L32.735,47.047z"/><path d="M17.639,38.812c0.017,0.001,0.033,0.001,0.049,0.001c0.53,0,0.972-0.417,0.998-0.952c0.026-0.552-0.399-1.021-0.951-1.047	l-5.188-0.25c-0.559-0.044-1.021,0.399-1.047,0.951s0.399,1.021,0.951,1.047L17.639,38.812z"/></g></svg>